# xmcd
#
# Track frame offsets: 
#        150
#        10286
#        24004
#        37865
#        50502
#        66635
#        81922
#        91668
#        108838
#        121230
#        129886
#
# Disc length: 1887 seconds
#
# Revision: 0
# Processed by: cddbd v1.5.2PL0 Copyright (c) Steve Scherf et al.
# Submitted via: ExactAudioCopy v0.99pb4
#
DISCID=7b075d0b
DTITLE=Endless Sounds Band - Country Goes Country
DYEAR=2009
DGENRE=Country
TTITLE0=Country Boogie Baby
TTITLE1=Harlan County
TTITLE2=Tricia
TTITLE3=Faded Memory
TTITLE4=Oh Mama
TTITLE5=I Need Time
TTITLE6=Those Good Ol' Days
TTITLE7=Frankie and Johnny
TTITLE8=Get Your Memory
TTITLE9=Makes A Bartender Cry
TTITLE10=High Heel Sneekers
EXTD=
EXTT0=
EXTT1=
EXTT2=
EXTT3=
EXTT4=
EXTT5=
EXTT6=
EXTT7=
EXTT8=
EXTT9=
EXTT10=
PLAYORDER=
